<svg xmlns="http://www.w3.org/2000/svg" xmlns:xlink="http://www.w3.org/1999/xlink" viewBox="0 0 3766.81 1681.45"><defs><style>.cls-1{fill:#e3a429;}.cls-2{fill:url(#linear-gradient);}.cls-3{fill:url(#linear-gradient-2);}.cls-4{fill:url(#linear-gradient-3);}.cls-5{fill:#39b54a;}.cls-6{fill:#056839;}.cls-7{fill:url(#linear-gradient-4);}</style><linearGradient id="linear-gradient" x1="282.19" y1="276.85" x2="759.73" y2="276.85" gradientUnits="userSpaceOnUse"><stop offset="0" stop-color="#8fc645"/><stop offset="1" stop-color="#01612d"/></linearGradient><linearGradient id="linear-gradient-2" x1="720.19" y1="421.22" x2="1195.7" y2="421.22" xlink:href="#linear-gradient"/><linearGradient id="linear-gradient-3" x1="422.42" y1="641.23" x2="1056.89" y2="641.23" xlink:href="#linear-gradient"/><linearGradient id="linear-gradient-4" x1="3147.49" y1="781.57" x2="3304.28" y2="781.57" xlink:href="#linear-gradient"/></defs><g id="Layer_2" data-name="Layer 2"><g id="Layer_1-2" data-name="Layer 1"><path class="cls-1" d="M1280.26,788.62V786.3h.06a86.27,86.27,0,0,1,26.28-58.79l18.94-18.41c64.55-62.39,2.69-169.5-83.58-144.81l-25.5,7.18A86.18,86.18,0,0,1,1109.89,465l7.27-25.5a1.35,1.35,0,0,0-2.36-1.2C1067.8,498.79,1005,541.36,933,566.49a1.36,1.36,0,0,0-.21,2.48C1039.5,627.16,1120,727.43,1151.92,847.49a37.22,37.22,0,0,0,36,27.53h54.92a37.39,37.39,0,0,0,37.4-37.4v-47C1280.25,790,1280.26,789.28,1280.26,788.62Z"/><path class="cls-1" d="M1280.26,788.62c0-.78,0-1.55.06-2.32h-.06Z"/><path class="cls-1" d="M1243.19,1190.91H1176a136.58,136.58,0,0,0-106.71,51.78c-82.21,103.12-208.91,169.2-351,169.2v-.09c-247.8,3.51-451.52-194.52-455-442.32-2-139.93,60.32-265.81,159.55-349.51h0c-1.54-23.48,1.66-48.74,7.86-74.42,1.7,22.15,7.27,40.48,16.06,55.61A447.74,447.74,0,0,1,543.89,547h0c-111.11-19.56-184-80-224-158.24-5,15.17-5.73,32.43-.47,50.8l7.18,25.5A86.19,86.19,0,0,1,220.09,571.56l-25.49-7.27C108.41,539.6,46.46,646.71,111,709.1L130,727.51A86.18,86.18,0,0,1,91,873.13L65.31,879.5c-87.08,21.82-87.08,145.45,0,167.35L91,1053.23a86.18,86.18,0,0,1,39,145.62L111,1217.25c-64.55,62.4-2.69,169.51,83.59,144.82l25.49-7.19a86.19,86.19,0,0,1,106.57,106.57l-7.27,25.41c-24.69,86.19,82.42,148.13,144.81,83.58l18.41-18.94a86.19,86.19,0,0,1,145.62,39l6.37,25.68c21.82,87.09,145.44,87.09,167.35,0l6.37-25.68a86.2,86.2,0,0,1,145.63-39l18.4,18.94c62.4,64.55,169.5,2.7,144.81-83.58l-7.18-25.5a86.19,86.19,0,0,1,106.57-106.57l25.41,7.28c86.18,24.69,148.13-82.42,83.58-144.82l-2.44-1.66A141.71,141.71,0,0,0,1243.19,1190.91Z"/><path class="cls-2" d="M758.75,539.19c-148.68-25.46-245-132.69-277.56-279.14,17.41,59.58,102.13,171.78,238.17,226.84C841.11,212.29,679.6-1.68,340.83,0,203,244.73,294.79,633.68,758.75,539.19Z"/><path class="cls-3" d="M813.51,317.37a128.29,128.29,0,0,0-12.32,31.75c-21.56,88.16-37,124-50.37,142.24,61.32-23.08,175.08-73,231.87-29.38-110.22-23.41-205.06,43.63-262.5,130.29,227.91,16.4,431.89-94.81,475.51-343.67C988.07,355.64,890.64,182.05,813.51,317.37Z"/><path class="cls-4" d="M479.38,716.69c34.49,20.54,81.32,24.14,136.29,16.58,146.87-19.54,277.27-37.77,441.22-35C924.73,575.41,449.25,786.84,430.67,545.55,414,614.46,419,680.4,479.38,716.69Z"/><path class="cls-5" d="M731,1124.53q-7.87,7.88-22.76,12.08t-35.69,4.22a124,124,0,0,1-39.34-6.18q-18.54-6.18-30.34-29.79L547.19,991.34q-8.43-17.42-15.18-32.88T517.4,922.77l-3.37.56q2.24,30.36,2.53,61.82t.28,61.82v87.11a156.31,156.31,0,0,1-18.83,3.38,189.78,189.78,0,0,1-25,1.68,127.46,127.46,0,0,1-21.91-1.68,33.61,33.61,0,0,1-15.74-6.75,32.24,32.24,0,0,1-9.55-13.77q-3.37-8.7-3.38-22.76v-281q7.88-11.23,24.17-16.86a106.3,106.3,0,0,1,34.84-5.62,121.4,121.4,0,0,1,39.62,6.46q18.83,6.48,30.07,29.51l56.2,113.52q8.43,17.43,15.18,32.88t14.61,35.69l2.81-.56q-2.25-30.36-2.81-60.7t-.56-60.7v-91a155.72,155.72,0,0,1,18.82-3.37,188.11,188.11,0,0,1,25-1.69q24.72,0,37.66,8.71T731,835.66Z"/><path class="cls-5" d="M784.08,926.53a100.93,100.93,0,0,1,13.79-2.63,141.89,141.89,0,0,1,19.5-1.31,103.88,103.88,0,0,1,17.3,1.31,29.58,29.58,0,0,1,12.92,5.26,25.37,25.37,0,0,1,8.1,10.73q2.85,6.79,2.85,17.74v94.17q0,18,8.76,25.62t25.4,7.67a63.36,63.36,0,0,0,16.43-1.76,55.92,55.92,0,0,0,9.85-3.5V926.53a101.46,101.46,0,0,1,13.8-2.63,141.74,141.74,0,0,1,19.49-1.31,103.7,103.7,0,0,1,17.3,1.31,29.48,29.48,0,0,1,12.92,5.26,25.29,25.29,0,0,1,8.1,10.73q2.85,6.79,2.85,17.74v133.15q0,21.9-18.39,32.85-15.34,9.64-36.58,14.67a200,200,0,0,1-46.21,5,170.39,170.39,0,0,1-43.58-5.26q-19.93-5.25-34.38-16.2A72.41,72.41,0,0,1,792,1093.63q-7.87-17.3-7.88-41.83Z"/><path class="cls-5" d="M1108.63,1135.89a99.91,99.91,0,0,1-13.8,2.63,140.38,140.38,0,0,1-19.49,1.32,102.5,102.5,0,0,1-17.3-1.32,29.47,29.47,0,0,1-12.92-5.25,25.2,25.2,0,0,1-8.1-10.74q-2.87-6.78-2.85-17.73V973.4q0-10.08,3.72-17.3a40.68,40.68,0,0,1,10.73-12.93,77.77,77.77,0,0,1,17.3-10.29,178.61,178.61,0,0,1,22.12-8.1,187.89,187.89,0,0,1,24.53-5.48,165.92,165.92,0,0,1,25.41-2q21,0,33.28,8.1t12.27,26.5a42.08,42.08,0,0,1-1.76,12.05,54.57,54.57,0,0,1-4.38,10.73q-9.2,0-18.83.88t-18.83,2.62q-9.2,1.75-17.3,3.73a74.89,74.89,0,0,0-13.8,4.6Z"/><path class="cls-5" d="M1389,1072.82q0,33.3-25,52.12t-73.58,18.84a208.44,208.44,0,0,1-34.17-2.63q-15.76-2.62-26.93-8.1a48.13,48.13,0,0,1-17.52-13.8,31.48,31.48,0,0,1-6.35-19.71q0-10.51,4.38-17.74a43.89,43.89,0,0,1,10.51-12,174.42,174.42,0,0,0,29.12,12.48q16.43,5.48,37.89,5.47,13.58,0,20.81-3.94t7.22-10.51a11,11,0,0,0-5.25-9.64q-5.27-3.49-17.52-5.69l-13.14-2.63q-38.12-7.44-56.72-23.43t-18.62-45.77a60.46,60.46,0,0,1,26.72-51.25q12.69-8.76,30.44-13.58a149.48,149.48,0,0,1,39.2-4.81,182.1,182.1,0,0,1,30.44,2.41,99,99,0,0,1,24.75,7.22,44.82,44.82,0,0,1,16.64,12.48,28.23,28.23,0,0,1,6.14,18.18,37.37,37.37,0,0,1-3.73,17.3,38.87,38.87,0,0,1-9.41,12.05,54.51,54.51,0,0,0-10.52-4.6q-7-2.4-15.33-4.38t-16.86-3.29a103.76,103.76,0,0,0-15.55-1.31q-14.44,0-22.34,3.28t-7.88,10.3a9.26,9.26,0,0,0,4.38,7.88q4.36,3.07,16.64,5.7l13.58,3.06q42,9.64,59.79,26.5T1389,1072.82Z"/><path class="cls-5" d="M1534.79,1143.34a153.49,153.49,0,0,1-48-7.23,108.59,108.59,0,0,1-38.54-21.68q-16.43-14.45-25.85-36.35t-9.41-51.25q0-28.9,9.41-49.71T1447.19,943a99.11,99.11,0,0,1,35-19.71,131,131,0,0,1,40.3-6.35q23.21,0,42.26,7a101.74,101.74,0,0,1,32.85,19.27,85.93,85.93,0,0,1,21.47,29.35,90.06,90.06,0,0,1,7.66,37.23q0,14.89-8.32,22.78t-23.21,10.07l-108.19,16.21q4.82,14.45,19.71,21.68t34.16,7.22a122.51,122.51,0,0,0,33.95-4.59q16-4.61,26.06-10.74a36.86,36.86,0,0,1,11.83,12.27,31.4,31.4,0,0,1,4.81,16.64q0,19.71-18.39,29.35a97.4,97.4,0,0,1-31.54,10.07A222.39,222.39,0,0,1,1534.79,1143.34Zm-12.26-172.13a43.52,43.52,0,0,0-18.18,3.5,36.62,36.62,0,0,0-12.48,9,37.1,37.1,0,0,0-7.23,12.26,50.35,50.35,0,0,0-2.85,13.8l74.9-12.26q-1.31-8.76-9.63-17.52T1522.53,971.21Z"/><path class="cls-5" d="M1732.33,1135.89a99.91,99.91,0,0,1-13.8,2.63,140.38,140.38,0,0,1-19.49,1.32,102.42,102.42,0,0,1-17.3-1.32,29.47,29.47,0,0,1-12.92-5.25,25.12,25.12,0,0,1-8.1-10.74q-2.87-6.78-2.85-17.73V973.4q0-10.08,3.72-17.3a40.68,40.68,0,0,1,10.73-12.93,77.77,77.77,0,0,1,17.3-10.29,178.61,178.61,0,0,1,22.12-8.1,187.89,187.89,0,0,1,24.53-5.48,165.89,165.89,0,0,1,25.4-2q21,0,33.29,8.1t12.27,26.5a42.08,42.08,0,0,1-1.76,12.05,54.57,54.57,0,0,1-4.38,10.73q-9.19,0-18.83.88t-18.83,2.62q-9.21,1.75-17.3,3.73a74.89,74.89,0,0,0-13.8,4.6Z"/><path class="cls-5" d="M1873.36,1082q-4.83-10.95-10.3-24.53t-11.38-31.1q-5.92-17.51-12.27-40.07t-13.36-51.91a56.85,56.85,0,0,1,39-15.33q15.32,0,25.4,6.35t14.89,23.88l34.6,120.45h1.76q5.25-14.9,10.29-32.42t9.85-36.13q4.82-18.62,9-37.23t7.23-36.57a72.94,72.94,0,0,1,34.6-8.33q15.33,0,25.41,6.57t10.07,22.78a144,144,0,0,1-3.07,27.37q-3.06,15.56-8.1,33.07T2025.12,1045q-6.8,18.62-14.23,36.57t-15.33,34q-7.89,16-15.33,28.69-12.27,21.45-22.78,35t-20.14,21.24A57.67,57.67,0,0,1,1918,1211a70.63,70.63,0,0,1-20.14,2.85q-18.41,0-29.79-10.95t-13.58-28.47q14-10.95,28-24.31a295.43,295.43,0,0,0,25.4-27.38q-7.45-2.18-16-10.29T1873.36,1082Z"/><path class="cls-6" d="M2240.4,1030.77q-19.28-6.57-35-13.36A107.21,107.21,0,0,1,2178.2,1001a68,68,0,0,1-17.74-23q-6.35-13.35-6.35-32.63,0-37.22,28.69-59.56t80.37-22.34a218.23,218.23,0,0,1,35,2.63q16.2,2.63,27.82,8.1t18.17,14a31.78,31.78,0,0,1,6.57,19.93q0,11.4-5.25,19.49a54.58,54.58,0,0,1-12.7,13.8q-9.65-6.12-25.85-10.73a129.42,129.42,0,0,0-35.47-4.6q-19.71,0-28.91,5.48t-9.2,13.79a12.78,12.78,0,0,0,5.69,10.74q5.7,4.15,17.09,7.66l23.21,7.45q41.16,13.14,63.29,33.5t22.12,55.41q0,37.23-29.35,60.23t-86.28,23a200.79,200.79,0,0,1-37.45-3.29,117.79,117.79,0,0,1-30.22-9.63q-12.93-6.35-20.15-15.77a34.6,34.6,0,0,1-7.23-21.68q0-12.71,7.45-21.68a56.92,56.92,0,0,1,16.2-13.8q12.27,9.65,30,16.65a104.57,104.57,0,0,0,38.76,7q21.45,0,30.22-6.57t8.76-15.33q0-8.74-7-13.35t-19.71-9Z"/><path class="cls-6" d="M2617.08,1029.9q0,27.16-8.33,48.4a98.11,98.11,0,0,1-23.43,35.69,99.54,99.54,0,0,1-36.13,21.9q-21,7.45-46.87,7.45t-46.87-7.88a103.08,103.08,0,0,1-36.13-22.56,100.4,100.4,0,0,1-23.43-35.7q-8.32-21-8.33-47.3,0-25.85,8.33-46.87a100.58,100.58,0,0,1,23.43-35.7,103.06,103.06,0,0,1,36.13-22.55q21-7.89,46.87-7.89t46.87,8.11a105.76,105.76,0,0,1,36.13,22.77,100.76,100.76,0,0,1,23.43,35.7Q2617.08,1004.5,2617.08,1029.9Zm-153.3,0q0,26.71,10.29,40.95t28.69,14.24q18.39,0,28.25-14.46t9.85-40.73q0-26.28-10.07-40.52t-28.47-14.23q-18.39,0-28.47,14.23T2463.78,1029.9Z"/><path class="cls-6" d="M2724.38,1135.89q-4.82.88-14.23,2.41a118.64,118.64,0,0,1-19.05,1.54,102.42,102.42,0,0,1-17.3-1.32,29.51,29.51,0,0,1-12.93-5.25,25.28,25.28,0,0,1-8.1-10.74q-2.85-6.78-2.85-17.73v-254q4.82-.88,14.24-2.41a118.64,118.64,0,0,1,19.05-1.54,102.58,102.58,0,0,1,17.3,1.32,29.47,29.47,0,0,1,12.92,5.25,25.28,25.28,0,0,1,8.11,10.74q2.84,6.79,2.84,17.73Z"/><path class="cls-6" d="M2766.43,926.53a101.46,101.46,0,0,1,13.8-2.63,141.85,141.85,0,0,1,19.49-1.31,103.7,103.7,0,0,1,17.3,1.31,29.48,29.48,0,0,1,12.92,5.26,25.39,25.39,0,0,1,8.11,10.73q2.84,6.79,2.84,17.74v94.17q0,18,8.76,25.62t25.41,7.67a63.23,63.23,0,0,0,16.42-1.76,56.07,56.07,0,0,0,9.86-3.5V926.53a100.93,100.93,0,0,1,13.79-2.63,141.85,141.85,0,0,1,19.49-1.31,103.92,103.92,0,0,1,17.31,1.31,29.58,29.58,0,0,1,12.92,5.26,25.37,25.37,0,0,1,8.1,10.73q2.85,6.79,2.85,17.74v133.15q0,21.9-18.4,32.85-15.33,9.64-36.57,14.67a200.08,200.08,0,0,1-46.21,5,170.28,170.28,0,0,1-43.58-5.26q-19.93-5.25-34.39-16.2a72.39,72.39,0,0,1-22.33-28.25q-7.89-17.3-7.89-41.83Z"/><path class="cls-6" d="M3091,1063.19q0,11.38,7.23,16.2t20.37,4.82a88,88,0,0,0,13.58-1.09,76.24,76.24,0,0,0,12.26-2.85,53.54,53.54,0,0,1,6.79,10.73,32.68,32.68,0,0,1,2.85,14.23q0,16.65-12.49,27.16t-44,10.51q-38.55,0-59.35-17.52t-20.8-56.94V881c3.21-.88,7.81-1.82,13.8-2.85a113.28,113.28,0,0,1,19.05-1.53q19.27,0,30,6.79T3091,912.08v28h57.38a75.27,75.27,0,0,1,5,12,50.52,50.52,0,0,1,2.41,16q0,15.33-6.79,22.12t-18.18,6.79H3091Z"/><path class="cls-6" d="M3525.91,1029.9q0,27.16-8.32,48.4a98.11,98.11,0,0,1-23.43,35.69,99.58,99.58,0,0,1-36.14,21.9q-21,7.45-46.86,7.45t-46.87-7.88a103.08,103.08,0,0,1-36.13-22.56,100.56,100.56,0,0,1-23.44-35.7q-8.32-21-8.32-47.3,0-25.85,8.32-46.87a100.73,100.73,0,0,1,23.44-35.7,103.06,103.06,0,0,1,36.13-22.55q21-7.89,46.87-7.89T3458,925a105.81,105.81,0,0,1,36.14,22.77,100.76,100.76,0,0,1,23.43,35.7Q3525.92,1004.5,3525.91,1029.9Zm-153.3,0q0,26.71,10.3,40.95t28.69,14.24q18.39,0,28.25-14.46t9.85-40.73q0-26.28-10.07-40.52t-28.47-14.23q-18.4,0-28.47,14.23T3372.61,1029.9Z"/><path class="cls-6" d="M3692.35,1001.43q0-13.57-7.66-19.93t-20.81-6.35a69.36,69.36,0,0,0-17.3,2.19,43.57,43.57,0,0,0-14.67,6.57v152a99.91,99.91,0,0,1-13.8,2.63,140.38,140.38,0,0,1-19.49,1.32,102.42,102.42,0,0,1-17.3-1.32,29.47,29.47,0,0,1-12.92-5.25,25.12,25.12,0,0,1-8.1-10.74q-2.87-6.78-2.85-17.73V973.4q0-11.83,5-19.28a53.06,53.06,0,0,1,13.79-13.57q14.89-10.51,37.45-17.09t50.15-6.57q49.5,0,76.21,21.68t26.72,60.23v137.09a100,100,0,0,1-13.79,2.63,140.52,140.52,0,0,1-19.5,1.32,102.58,102.58,0,0,1-17.3-1.32,29.52,29.52,0,0,1-12.92-5.25,25.28,25.28,0,0,1-8.1-10.74q-2.85-6.78-2.85-17.73Z"/><path class="cls-6" d="M3263.11,1135.89q-4.82.88-14.23,2.41a118.64,118.64,0,0,1-19.05,1.54,102.42,102.42,0,0,1-17.3-1.32,29.51,29.51,0,0,1-12.93-5.25,25.28,25.28,0,0,1-8.1-10.74q-2.85-6.78-2.85-17.73V926.53q4.82-.87,14.24-2.41a118.63,118.63,0,0,1,19.05-1.53,103.7,103.7,0,0,1,17.3,1.31,29.48,29.48,0,0,1,12.92,5.26,25.39,25.39,0,0,1,8.11,10.73q2.83,6.79,2.84,17.74Z"/><path class="cls-7" d="M3248.64,659.39c20.43,19.78,36.41,40.48,46.24,63.86,10.29,24.49,12.47,51.78,4.89,77.24-10.34,34.72-35.64,57.91-70.18,79.25-15.86-33.32-22.41-67.57-12.11-103.49-24.68,42.49-23.16,85,9.85,127.5-65.47-35.37-86.38-79.41-78.14-134C3157.39,717.13,3195.71,681.82,3248.64,659.39Z"/></g></g></svg>